<?xml version="1.0" encoding="UTF-8" standalone="no"?>
<svg
   xmlns:dc="http://purl.org/dc/elements/1.1/"
   xmlns:cc="http://creativecommons.org/ns#"
   xmlns:rdf="http://www.w3.org/1999/02/22-rdf-syntax-ns#"
   xmlns:svg="http://www.w3.org/2000/svg"
   xmlns="http://www.w3.org/2000/svg"
   xmlns:sodipodi="http://sodipodi.sourceforge.net/DTD/sodipodi-0.dtd"
   xmlns:inkscape="http://www.inkscape.org/namespaces/inkscape"
   id="svg3310"
   sodipodi:docname="logo.svg"
   inkscape:export-filename="/home/joanna/gfx/vector/aiga/aiga_taxi1.png"
   viewBox="0 0 100 100"
   sodipodi:version="0.32"
   inkscape:export-xdpi="29.411764"
   version="1.0"
   inkscape:output_extension="org.inkscape.output.svg.inkscape"
   inkscape:export-ydpi="29.411764"
   inkscape:version="0.48.4 r9939"
   width="100%"
   height="100%">
  <defs
     id="defs17" />
  <sodipodi:namedview
     id="base"
     bordercolor="#666666"
     inkscape:pageshadow="2"
     inkscape:window-width="1366"
     pagecolor="#ffffff"
     inkscape:zoom="2.4559706"
     inkscape:window-x="0"
     showgrid="false"
     borderopacity="1.0"
     inkscape:current-layer="svg3310"
     inkscape:cx="86.748585"
     inkscape:cy="41.295775"
     inkscape:window-y="27"
     inkscape:window-height="704"
     inkscape:pageopacity="0.0"
     inkscape:window-maximized="1" />
  <g
     id="g3320"
     transform="matrix(0.15905199,0,0,0.15905199,1.3170488,1.236975)">
    <path
       id="path3322"
       style="fill:#000000;stroke:#000000;stroke-width:3.40799999"
       d="m 82.432,17.924 c -41.335,0 -64.571,21.371 -64.571,65.036 v 450.12 c 0,40.84 20.891,62.23 62.192,62.23 h 452.03 c 41.3,0 62.22,-20.32 62.22,-62.23 V 82.96 c 0,-42.6 -20.92,-65.036 -63.52,-65.036 0,0 -448.49,-0.142 -448.35,0 z"
       inkscape:connector-curvature="0" />
    <g
       id="g3324">
      <path
         id="path3326"
         style="fill:#ffffff"
         d="m 306.12,452.72 h -0.06 -104.73 v 33.07 c 0,40.26 -58.24,40.74 -58.24,0 V 452.72 H 112.1 V 349.16 c 0,-27.8 22.36,-42.48 34.98,-44.09 l 31.88,-81.39 c 6,-15.5 19,-28.75 43.5,-28.75 h 45.53 v -21.25 c 0,-8.5 4.61,-12.82 12.11,-12.82 h 25.96 0.06 -0.06 0.06 26.46 c 7.5,0 12.11,4.32 12.11,12.82 v 21.25 h 45.02 c 24.5,0 37.5,13.25 43.5,28.75 l 31.87,81.39 c 12.63,1.61 35.01,16.29 35.01,44.09 v 103.56 h -31 v 33.07 c 0,40.74 -58.24,40.26 -58.24,0 v -33.07 h -104.73 -0.06 0.06 z"
         inkscape:connector-curvature="0" />
      <g
         id="g3328">
        <path
           id="path3330"
           style="fill:#000000"
           d="M 306.06,303.16 H 306 180.08 l 24,-62.98 c 3,-9 7.5,-15.5 18,-15.6 h 83.92 0.06 0.06 83.96 c 10.5,0.1 15,6.6 18,15.6 l 24,62.98 h -125.96 -0.06 z"
           inkscape:connector-curvature="0" />
        <g
           id="g3332">
          <g
             id="g3334">
            <path
               id="path3336"
               style="fill:#000000"
               d="m 173.14,389.41 c -14.86,0 -26.9,-12.29 -26.9,-27.45 0,-15.16 12.04,-27.45 26.9,-27.45 14.86,0 26.9,12.29 26.9,27.45 0,15.16 -12.04,27.45 -26.9,27.45 z"
               inkscape:connector-curvature="0" />
          </g>
          <g
             id="g3340">
            <path
               id="path3342"
               style="fill:#000000"
               d="m 439.02,389.41 c 14.86,0 26.9,-12.29 26.9,-27.45 0,-15.16 -12.04,-27.45 -26.9,-27.45 -14.85,0 -26.9,12.29 -26.9,27.45 0,15.16 12.05,27.45 26.9,27.45 z"
               inkscape:connector-curvature="0" />
          </g>
        </g>
      </g>
    </g>
  </g>
  <metadata
     id="metadata15">
    <rdf:RDF>
      <cc:Work>
        <dc:format>image/svg+xml</dc:format>
        <dc:type
           rdf:resource="http://purl.org/dc/dcmitype/StillImage" />
        <cc:license
           rdf:resource="http://creativecommons.org/licenses/publicdomain/" />
        <dc:publisher>
          <cc:Agent
             rdf:about="http://openclipart.org/">
            <dc:title>Openclipart</dc:title>
          </cc:Agent>
        </dc:publisher>
        <dc:title>aiga taxi bg</dc:title>
        <dc:date>2009-04-27T09:58:30</dc:date>
        <dc:description>Set of international airport symbols.\n\nSource: http://www.aiga.org/content.cfm/symbol-signs\n\nConverted to SVG by Jean-Victor Balin.</dc:description>
        <dc:source>https://openclipart.org/detail/25350/aiga-taxi-bg-by-anonymous-25350</dc:source>
        <dc:creator>
          <cc:Agent>
            <dc:title>Anonymous</dc:title>
          </cc:Agent>
        </dc:creator>
        <dc:subject>
          <rdf:Bag>
            <rdf:li>aiga</rdf:li>
            <rdf:li>aiga bg</rdf:li>
            <rdf:li>black and white</rdf:li>
            <rdf:li>car</rdf:li>
            <rdf:li>externalsource</rdf:li>
            <rdf:li>icon</rdf:li>
            <rdf:li>map symbol</rdf:li>
            <rdf:li>sign</rdf:li>
            <rdf:li>silhouette</rdf:li>
            <rdf:li>symbol</rdf:li>
            <rdf:li>taxi</rdf:li>
            <rdf:li>transportation</rdf:li>
          </rdf:Bag>
        </dc:subject>
      </cc:Work>
      <cc:License
         rdf:about="http://creativecommons.org/licenses/publicdomain/">
        <cc:permits
           rdf:resource="http://creativecommons.org/ns#Reproduction" />
        <cc:permits
           rdf:resource="http://creativecommons.org/ns#Distribution" />
        <cc:permits
           rdf:resource="http://creativecommons.org/ns#DerivativeWorks" />
      </cc:License>
    </rdf:RDF>
  </metadata>
</svg>
